<!--?xml version="1.0" encoding="utf-8"?-->
<!-- Generator: Adobe Illustrator 18.0.0, SVG Export Plug-In . SVG Version: 6.00 Build 0)  -->

<svg version="1.1" id="_x31_0" xmlns="http://www.w3.org/2000/svg" xmlns:xlink="http://www.w3.org/1999/xlink" x="0px" y="0px" viewBox="0 0 512 512" style="width: 256px; height: 256px; opacity: 1;" xml:space="preserve">
<style type="text/css">
	.st0{fill:#374149;}
</style>
<g>
	<path class="st0" d="M27.492,194.351l36.746,36.895l26.734,27.004v-0.161l0.164,0.161v-61.637c0-10.954,8.874-19.829,19.832-19.829
		H400.93c10.957,0,19.832,8.875,19.832,19.829v61.637l64.066-64.325c3.168-3.203,5.598-7.164,6.996-11.582
		c-1.398-4.418-3.828-8.379-6.996-11.566l-0.867-0.863L290.531,14.402C281.324,5.102,268.969,0,255.949,0
		c-13.094,0-25.374,5.102-34.64,14.402L27.934,169.914l-0.442,0.441l-0.863,0.867l-0.426,0.442
		c-2.762,3.019-4.879,6.649-6.129,10.68c1.324,4.214,3.59,8.011,6.554,11.14C26.902,193.778,27.199,194.074,27.492,194.351z" style="fill: rgb(221, 221, 221);"></path>
	<polygon class="st0" points="62.492,278.738 18.886,235 18.886,235.16 18.726,235 18.726,446.094 124.305,340.519 	" style="fill: rgb(221, 221, 221);"></polygon>
	<path class="st0" d="M363.461,364.867L363.461,364.867l-0.114-0.114l-48.527,48.531c-15.777,15.719-36.641,24.406-58.875,24.406
		c-22.238,0-43.156-8.687-58.874-24.406l-48.531-48.531L20.328,492.965C24.274,504.054,34.847,512,47.309,512h417.269
		c12.462,0,23.039-7.946,26.981-19.035l-127.82-127.82L363.461,364.867z" style="fill: rgb(221, 221, 221);"></path>
	<polygon class="st0" points="493.274,235.058 493.16,235.168 493.16,234.942 387.926,340.18 387.699,340.406 387.699,340.406 
		387.586,340.519 493.16,446.094 493.16,322.641 	" style="fill: rgb(221, 221, 221);"></polygon>
	<path class="st0" d="M279.23,253.008l-1.145,7.152l-0.73,3.992l-5.461-5.465c-7.023-7.027-12.383-9.515-20.469-9.515
		c-28.289,0-40.953,28.274-40.953,56.297c0,9.84,2.336,32.726,23.957,32.726c7.191,0,20.726-7.867,29.816-15.27l3.34-2.726
		l0.871-0.656l2.023,4.98c4.031,9.965,9.313,16.141,23.149,16.141c27.844,0,59.586-34.664,59.586-65.07
		c0-54.687-48.359-79.594-93.297-79.594c-54.882,0-101.246,44.734-101.246,97.683c0,53.258,46.16,96.586,102.894,96.586
		c31.93,0,56.546-10.203,84.164-35.074l-10.125-12.703l-0.02-0.023l0,0l-0.098-0.125c-20.477,16.195-36.977,24.41-65.703,24.41
		c-48.347,0-82.113-30.16-82.113-73.343c0-39.606,32.457-73.066,70.874-73.066c42.325,0,67.59,22.191,67.59,59.363
		c0,11.469-7.641,47.578-25.383,47.578c-5.922,0-9.75-3.937-9.75-10.031c0-2.934,0.531-5.722,1.039-8.418
		c0.234-1.219,0.468-2.438,0.648-3.699l6.977-45.106l1.086-6.863h-0.027l0.027-0.16H279.23z M242.926,316.594
		c-2.16,0-9.207-1.039-9.207-14.414c0-20.485,7.551-32.23,20.719-32.23c4.941,0,11.613,3.382,16.027,5.617l3.718,1.871
		l-4.594,29.832l-1.805,0.934c-1.539,0.793-2.922,1.554-4.234,2.278C257.594,313.762,252.445,316.594,242.926,316.594z" style="fill: rgb(221, 221, 221);"></path>
</g>
</svg>
