<!--?xml version="1.0" encoding="utf-8"?-->
<!-- Generator: Adobe Illustrator 19.1.1, SVG Export Plug-In . SVG Version: 6.00 Build 0)  -->
<svg version="1.1" id="_x31_0" xmlns="http://www.w3.org/2000/svg" xmlns:xlink="http://www.w3.org/1999/xlink" x="0px" y="0px" viewBox="0 0 512 512" style="width: 256px; height: 256px; opacity: 1;" xml:space="preserve">
<style type="text/css">
	.st0{fill:#374149;}
</style>
<g>
	<path class="st0" d="M186.998,437.386c32.989,24.324,68.528,44.789,105.626,60.82c18.598,8.035,31.05,12.098,38.07,12.406
		l0.953,0.024c26.066,0,59.723-48.813,63.723-64.649c4.789-18.922-2.066-38.906-17.465-50.902l-34.985-27.278
		c-8.722-6.797-19.176-10.394-30.234-10.394c-12.348,0-24.18,4.59-33.321,12.922c-5.394,4.922-12.64,11.844-16.718,17.078
		c-0.282,0.172-0.77,0.27-1.379,0.27c-14.648,0.004-65.898-44.57-79.59-58.817c-14.458-13.89-59.512-65.722-58.719-79.805
		c0.054-0.984,0.367-1.226,0.469-1.305c5.016-3.836,11.942-11.086,16.875-16.492c16.266-17.84,17.324-44.562,2.527-63.547
		l-27.285-34.988c-2.059-2.649-4.594-5.184-8.141-8.09c-1.344-1.074-2.723-2.078-4.692-3.328c-6.195-3.855-13.011-6.242-20.41-7.117
		c-1.996-0.23-4.008-0.352-6.027-0.352c-3.989,0-7.902,0.481-11.634,1.422c-13.957,3.523-65.851,37.214-64.621,64.683
		c0.313,7.024,4.367,19.469,12.406,38.066c16.058,37.157,36.558,72.742,60.93,105.766
		C105.33,367.214,143.565,405.437,186.998,437.386z" style="fill: rgb(221, 221, 221);"></path>
	<path class="st0" d="M435.022,78.182c-41.043-41.039-92.91-67.418-149.234-76.508c-3.508-0.566-6.898-0.309-10.157,0.363
		c-0.035,0.008-0.07,0.012-0.105,0.019c-1.758,0.371-3.434,0.902-5.066,1.586c-0.114,0.046-0.227,0.09-0.34,0.141
		c-1.582,0.691-3.078,1.504-4.504,2.461c-0.098,0.066-0.191,0.137-0.289,0.203c-1.446,0.996-2.786,2.102-4.028,3.343
		c-0.004,0.008-0.011,0.012-0.015,0.02c-5.118,5.137-8.438,12.129-8.442,20.05v0.039c-0.012,13.758,9.754,25.863,23.344,28.035
		c44.797,7.164,86,28.051,118.516,60.566c32.578,32.578,53.519,73.774,60.711,118.501c2.183,13.562,14.266,23.316,28,23.316
		c17.519,0,31.027-15.687,28.214-32.976C502.476,171.062,476.062,119.226,435.022,78.182z" style="fill: rgb(221, 221, 221);"></path>
	<path class="st0" d="M273.05,174.12c15.363,4.91,29.379,13.394,41.012,25.023c11.675,11.68,20.203,25.703,25.141,41.028
		c3.839,11.906,14.664,20.144,27.179,20.144h0.043c18.926,0,33.039-18.246,27.426-36.316c-7.566-24.367-20.961-46.668-39.469-65.176
		c-18.523-18.523-40.844-31.922-65.23-39.489c-18.058-5.598-36.293,8.493-36.313,27.403v0.152
		C252.827,159.44,261.096,170.296,273.05,174.12z" style="fill: rgb(221, 221, 221);"></path>
</g>
</svg>
