<!--?xml version="1.0" encoding="utf-8"?-->
<!-- Generator: Adobe Illustrator 18.1.1, SVG Export Plug-In . SVG Version: 6.00 Build 0)  -->

<svg version="1.1" id="_x31_0" xmlns="http://www.w3.org/2000/svg" xmlns:xlink="http://www.w3.org/1999/xlink" x="0px" y="0px" viewBox="0 0 512 512" style="width: 256px; height: 256px; opacity: 1;" xml:space="preserve">
<style type="text/css">
	.st0{fill:#374149;}
</style>
<g>
	<path class="st0" d="M465.602,8H46.402C20.801,8,0,28.797,0,54.481v403.117C0,483.278,20.801,504,46.402,504h419.199
		C491.203,504,512,483.278,512,457.598V54.481C512,28.797,491.203,8,465.602,8z M327.523,58.398c0-11.602,9.36-21.039,20.958-21.039
		c11.602,0,21.042,9.438,21.042,21.039c0,11.519-9.441,20.961-21.042,20.961C336.883,79.359,327.523,69.918,327.523,58.398z
		 M397.523,58.398c0-11.602,9.36-21.039,20.958-21.039c11.602,0,21.042,9.438,21.042,21.039c0,11.519-9.441,20.961-21.042,20.961
		C406.883,79.359,397.523,69.918,397.523,58.398z M464,456H48V104h416V456z" style="fill: rgb(221, 221, 221);"></path>
	<circle class="st0" cx="153.558" cy="381.738" r="19.312" style="fill: rgb(221, 221, 221);"></circle>
	<circle class="st0" cx="262.008" cy="381.738" r="19.312" style="fill: rgb(221, 221, 221);"></circle>
	<circle class="st0" cx="370.461" cy="381.738" r="19.312" style="fill: rgb(221, 221, 221);"></circle>
	<path class="st0" d="M412.371,153.5h-302v177h302V153.5z M231.894,298.5l-85.382-0.094l45.339-63.95
		c5.922-8.238,20.563-8.238,26.481,0l23.082,32.52l8.863,12.598l0.035-0.055l0.102,0.141l47.117-75.679
		c5.203-8.321,18.082-8.321,23.203,0l38.547,61.859l20.25,32.66H231.894z" style="fill: rgb(221, 221, 221);"></path>
</g>
</svg>
